<svg xmlns="http://www.w3.org/2000/svg" viewBox="0 0 327.94 236"><path d="M76.72,126.63V32h35v94.63L157,268H120.72L94.39,168.34,69.34,268H33.06Z" transform="translate(-33.06 -32)"/><path d="M359,63,298.15,234H361v34H261V237L324.33,66H264V32h95Z" transform="translate(-33.06 -32)"/><polygon points="193.25 202 159.94 202 159.94 136 219.94 136 219.94 102 159.94 102 159.94 34 227.94 34 227.94 0 159.94 0 141.94 0 123.94 0 123.94 236 141.94 236 159.94 236 180.64 236 193.25 202"/><polygon points="216.64 236 227.94 236 227.94 205.49 216.64 236"/><rect x="217.17" width="36.78" height="34"/></svg>